<?xml version="1.0" encoding="utf-8"?>
<!-- Generator: Adobe Illustrator 24.1.2, SVG Export Plug-In . SVG Version: 6.00 Build 0)  -->
<svg version="1.1" id="Слой_1" xmlns="http://www.w3.org/2000/svg" xmlns:xlink="http://www.w3.org/1999/xlink" x="0px" y="0px"
	 viewBox="0 0 175 29.8" style="enable-background:new 0 0 175 29.8;" xml:space="preserve">
<style type="text/css">
	.st0{font-family:'MyriadPro-Regular';}
	.st1{font-size:12px;}
</style>
<g>
	<path d="M52.1,13.5c0-0.5-0.1-1-0.2-1.4c-0.3-1.4-0.7-2.7-1-4.1c-0.1-0.2-0.3-0.4-0.6-0.4H46c-0.1,0-0.3,0-0.4,0
		c-0.1,0-0.2,0.1-0.2,0.2v3h-1.8V7.9c0-0.3,0-0.3-0.4-0.3H40c-0.7,0-1.2-0.4-1.3-1c-0.1-0.2-0.1-0.5-0.1-0.8
		c-0.2-1.5-1.4-2.6-2.9-2.6h-4.5V1.7h4.1V0H20.7v1.7h4.1v1.5h-0.3c-1,0-2.1,0-3.1,0c-1.2,0-2.1,0.6-2.6,1.7
		c-0.1,0.2-0.2,0.5-0.4,0.8c-0.1,0.3-0.4,0.4-0.7,0.4c-0.4,0-0.8,0-1.2,0c-1.8,0-3.1,1.3-3.1,2.9v3.6h-2.4V5.8c0,0,0,0,0,0
		c-0.6,0.5-1.1,1-1.6,1.6C9.3,7.5,9.2,7.9,9.2,8.1c0,1.6,0,3.2,0,4.8c0,0.3,0.1,0.6,0.3,0.8c0.3,0.2,0.3,0.5,0.3,0.8v5.2
		c0,0.2,0,0.4,0,0.6c0,0.3,0.1,0.5,0.4,0.6c0.3,0.1,0.6,0.2,1,0.3v-6.6h2.3c0,0.1,0,0.2-0.1,0.2v5.1c0,1.6,1.3,2.9,2.9,2.9h1.8
		c0.5,0,0.9,0.1,1.3,0.5c1.2,1.1,2.4,2.2,3.6,3.4c0.7,0.6,1.5,1,2.4,1h12.8c0.2,0,0.4,0.1,0.5,0.2c0.5,0.5,1.1,1,1.6,1.5
		c0.7,0.6,1.5,0.8,2.3,0.5c0.8-0.3,1.4-0.9,1.5-1.7c0.1-0.8-0.1-1.4-0.7-2c-0.1-0.1-0.1-0.2-0.1-0.2c0.2-0.5,0.2-0.9,0.2-1.3v-1.2
		h1.8v3.2c0.1,0,0.1,0,0.1,0h4.8c0.1,0,0.2-0.1,0.3-0.1c0.1-0.1,0.2-0.3,0.2-0.4c0.2-0.6,0.3-1.3,0.5-1.9c0.4-1.4,0.7-2.9,0.7-4.3
		C52.1,17.6,52.1,15.6,52.1,13.5z M49.8,23.2c-0.1,0.4-0.2,0.8-0.3,1.1c-0.1,0.3-0.2,0.5-0.6,0.5h-1.6v-3.3h-5.4v2.9
		c-0.1-0.1-0.2-0.1-0.2-0.2c-1.2-1.1-2.3-2.1-3.5-3.2c-0.1-0.1-0.2-0.2-0.1-0.3c2.1-4.3-0.4-9.3-5.1-10.5c-4.3-1.1-8.7,1.5-9.6,5.7
		c-1,4.2,2,8.4,6.5,9.1c1.7,0.3,3.3,0,4.8-0.8c0.1,0,0.1,0,0.1-0.1c0,0,0,0,0.1,0c0.6,0.6,1.2,1.1,1.9,1.7H25.8
		c-0.6,0-1-0.2-1.4-0.6c-1.2-1.1-2.4-2.3-3.6-3.4c-0.6-0.6-1.4-0.9-2.4-0.9h-1.8c-0.7,0-1.2-0.5-1.2-1.2V9c0-0.7,0.5-1.2,1.2-1.2
		c0.5,0,1.1,0,1.6-0.1c1-0.1,1.7-0.7,2.1-1.6c0.1-0.2,0.2-0.4,0.3-0.6c0.2-0.4,0.5-0.6,1-0.6h13.6c0.2,0,0.5,0,0.7,0.1
		c0.4,0.1,0.7,0.3,0.8,0.7c0.1,0.3,0.1,0.6,0.2,0.9c0.1,0.3,0.2,0.7,0.3,1c0.5,1.1,1.4,1.6,2.6,1.7c0.6,0,1.2,0,1.7,0h0.2v3.2h5.4
		V9.4c0.1,0,0.1,0,0.1,0c0.5,0,1,0,1.6,0c0.4,0,0.5,0.1,0.6,0.4c0.2,0.8,0.4,1.5,0.6,2.3c0.3,1,0.3,2.1,0.3,3.2c0,1.2-0.1,2.5,0,3.7
		C50.4,20.4,50.2,21.8,49.8,23.2z M37.5,17.4c0,3.6-2.8,6.4-6.6,6.4c-3.6,0-6.5-2.8-6.5-6.3c0-3.4,2.9-6.3,6.5-6.3
		C34.4,11.2,37.4,14,37.5,17.4z"/>
	<path d="M31.1,13.1c2.2,0,4.1,1.7,4.4,3.8c0,0.1,0,0.3,0,0.4c0,0.3-0.1,0.4-0.3,0.4c-0.2,0-0.3-0.1-0.3-0.4c-0.1-1-0.4-1.8-1.2-2.6
		c-0.8-0.7-1.7-1.1-2.7-1.1c-0.1,0-0.1,0-0.2,0c-0.2,0-0.3-0.1-0.3-0.3c0-0.2,0.1-0.3,0.3-0.3C30.9,13.1,31,13.1,31.1,13.1z"/>
</g>
<text transform="matrix(1 0 0 1 58.621 19.1224)" class="st0 st1">АВТОМАСТЕРСКАЯ</text>
</svg>
