<?xml version="1.0" encoding="utf-8"?>
<!-- Generator: Adobe Illustrator 24.1.2, SVG Export Plug-In . SVG Version: 6.00 Build 0)  -->
<svg version="1.1" id="Слой_1" xmlns="http://www.w3.org/2000/svg" xmlns:xlink="http://www.w3.org/1999/xlink" x="0px" y="0px"
	 viewBox="0 0 170.1 255.1" fill="teal" style="enable-background:new 0 0 170.1 255.1;" xml:space="preserve">
<g>
	<path d="M24,126.1c-2.8,0-5.5,0-8.3,0c0,7.7,0,15.5,0,23.4c-1.2-0.4-2.3-0.6-3.4-1c-0.9-0.4-1.3-1.2-1.4-2.1
		c-0.1-0.7-0.1-1.4-0.1-2.1c0-6.2,0-12.3,0-18.5c0-1.1-0.1-2-1.1-2.8c-0.9-0.7-1.1-1.7-1.1-2.8c0-5.7-0.1-11.4,0-17.1
		c0-0.9,0.4-2,1-2.6c1.8-2,3.8-3.8,5.8-5.7c0.1,0,0.2,0.1,0.2,0.1c0,8.1,0,16.3,0,24.4c2.9,0,5.7,0,8.6,0c0-0.3,0-0.6,0-0.9
		c0-4,0-8,0-12c0-6,4.6-10.5,10.9-10.5c1.4,0,2.8-0.1,4.2-0.1c1.1-0.1,1.9-0.6,2.4-1.5c0.5-0.9,1-1.8,1.4-2.7c1.9-3.8,5-5.9,9.4-6
		c3.7-0.1,7.4,0,11.1,0c0.3,0,0.6,0,1,0c0-1.9,0-3.7,0-5.5c-4.9,0-9.8,0-14.8,0c0-2,0-3.9,0-5.9c17.3,0,34.6,0,51.9,0
		c0,1.9,0,3.9,0,5.9c-4.8,0-9.6,0-14.5,0c0,1.9,0,3.7,0,5.6c0.3,0,0.5,0,0.8,0c5,0,10.1,0,15.1,0c5.4,0,9.9,3.9,10.5,9.1
		c0.1,0.9,0.2,1.8,0.4,2.7c0.5,2.3,2.2,3.6,4.7,3.6c3.9,0,7.7,0,11.6,0c1.2,0,1.3,0.1,1.3,1.2c0,3.2,0,6.3,0,9.5c0,0.3,0,0.5,0,0.9
		c2.1,0,4.2,0,6.3,0c0-0.3,0-0.6,0-0.9c0-3.2,0-6.5,0-9.7c0-0.6,0.2-0.8,0.7-0.8c0.5,0,0.9-0.1,1.4-0.1c5.1,0,10.3,0,15.4,0
		c1,0,1.7,0.5,2,1.4c1.2,4.9,2.5,9.8,3.7,14.7c0.4,1.6,0.6,3.3,0.6,5c0.1,7.4,0.1,14.8,0,22.2c0,5.2-1,10.3-2.5,15.4
		c-0.7,2.2-1.2,4.5-1.9,6.8c-0.2,0.5-0.4,1.1-0.8,1.5c-0.2,0.3-0.7,0.5-1.1,0.5c-5.7,0-11.4,0-17.1,0c-0.1,0-0.2,0-0.4-0.1
		c0-3.8,0-7.6,0-11.4c-2.2,0-4.4,0-6.6,0c0,1.4,0,2.7,0,4.1c0,1.6,0,3.2-0.6,4.8c-0.1,0.2,0.1,0.6,0.3,0.8c2,2,3,4.3,2.5,7.1
		c-0.5,3.1-2.4,5.2-5.4,6.2c-3.1,1-5.9,0.4-8.3-1.7c-1.9-1.7-3.8-3.5-5.7-5.2c-0.5-0.5-1-0.7-1.8-0.7c-15.3,0-30.5,0-45.8,0
		c-3.4,0-6.3-1.2-8.7-3.5c-4.2-4.1-8.5-8.1-12.7-12.1c-1.3-1.2-2.8-1.7-4.6-1.7c-2.1,0-4.2,0-6.3,0c-5.9,0-10.5-4.4-10.5-10.2
		c0-6,0-12.1,0-18.1C24,126.8,24,126.5,24,126.1z M125,107.4c-0.4,0-0.6,0-0.9,0c-2.1,0-4.2,0-6.2-0.1c-4.2-0.3-7.5-2.1-9.3-5.9
		c-0.5-1.1-0.8-2.3-1.2-3.5c-0.3-1-0.4-2.1-0.6-3.2c-0.4-1.5-1.4-2.3-2.9-2.5c-0.9-0.1-1.8-0.2-2.6-0.2c-15.5,0-31,0-46.5,0
		c-0.7,0-1.5,0-2.2,0c-1.6,0.1-2.8,0.8-3.5,2.2c-0.4,0.7-0.7,1.4-1,2.2c-1.5,3.1-4,5.1-7.5,5.6c-1.8,0.3-3.7,0.2-5.6,0.2
		c-2.5,0-4.3,1.8-4.3,4.2c0,11.1,0,22.1,0,33.2c0,1.7,0,3.4,0,5.1c-0.1,2.5,1.7,4.3,4.3,4.3c2.2,0,4.4,0,6.6,0
		c3.3,0,6.1,1.1,8.4,3.3c4.2,4,8.5,8.1,12.7,12.1c1.4,1.4,3.1,2,5.1,2c12.7,0,25.4,0,38.1,0c0.3,0,0.5,0,0.9,0
		c-2.3-2.1-4.5-4.1-6.7-6.1c-0.1,0-0.1,0-0.2,0c-0.2,0.1-0.3,0.2-0.5,0.2c-5.4,2.8-11.2,3.7-17.3,2.8c-15.9-2.3-26.6-17.2-23.2-32.3
		c3.4-15.1,18.9-24.3,34.4-20.5c16.9,4.1,25.7,22.1,18.3,37.4c-0.3,0.6-0.2,0.8,0.3,1.2c4.1,3.8,8.3,7.5,12.4,11.3
		c0.2,0.2,0.4,0.4,0.8,0.7c0-3.6,0-6.9,0-10.3c6.5,0,12.9,0,19.4,0c0,3.9,0,7.7,0,11.6c2,0,3.9,0,5.8,0c1.3,0,1.8-0.4,2.1-1.6
		c0.4-1.3,0.7-2.7,1.1-4c1.5-4.9,2.2-9.8,1.9-14.9c-0.3-4.4-0.1-8.9,0-13.3c0.1-3.9,0-7.7-0.9-11.4c-0.7-2.8-1.4-5.5-2.1-8.3
		c-0.3-1.1-0.8-1.5-2.1-1.5c-1.9,0-3.7,0-5.6,0.1c-0.1,0-0.2,0-0.4,0.1c0,3.8,0,7.5,0,11.3c-6.5,0-12.8,0-19.3,0
		C125,115.1,125,111.3,125,107.4z M86.1,159.2c13.3-0.1,23.5-10.2,23.4-22.9c-0.1-12.2-10.8-22.2-23.6-22.1
		c-12.7,0.1-23.2,10.3-23.1,22.5C63,149.3,73.4,159.3,86.1,159.2z"/>
	<path d="M86.6,121.1c7.8,0.1,14.8,6.1,15.7,13.5c0.1,0.5,0.1,1,0.1,1.5c0,0.9-0.4,1.4-1.1,1.4c-0.7,0-1.1-0.5-1.2-1.3
		c-0.2-3.5-1.6-6.6-4.2-9.1c-2.7-2.5-6-3.8-9.7-3.9c-0.2,0-0.4,0-0.6,0c-0.6-0.1-0.9-0.5-1-1.1c0-0.6,0.3-1,1-1.1
		C86,121,86.3,121.1,86.6,121.1z"/>
</g>
</svg>
