<svg xmlns="http://www.w3.org/2000/svg" viewBox="0 0 150.13 149.86"><g id="Слой_2" data-name="Слой 2"><g id="Слой_1-2" data-name="Слой 1"><path d="M29.66,103a4.14,4.14,0,0,1-3.13-1.42c-.61-.69-14.73-17.11-11.41-43.5a4.18,4.18,0,0,1,8.29,1C20.54,81.78,32.67,95.88,32.8,96A4.18,4.18,0,0,1,29.66,103" fill="#48443e"/><path d="M48,95a4.14,4.14,0,0,1-2.84-1.12c-.74-.69-18-17.38-13.92-59.3a4.17,4.17,0,0,1,8.31.81C35.86,73.28,50.73,87.66,50.89,87.8A4.17,4.17,0,0,1,48,95" fill="#48443e"/><path d="M63.55,83.5a4.21,4.21,0,0,1-3.13-1.39c-.69-.78-16.85-19.43-6.35-61.45a4.18,4.18,0,0,1,8.1,2c-4.9,19.59-3.39,33.23-1.27,41.21,2.27,8.56,5.72,12.62,5.76,12.66a4.17,4.17,0,0,1-3.11,6.94" fill="#48443e"/><path d="M115.78,38.11a4.11,4.11,0,0,1-2.44-.79C94.92,24.06,76.57,27.86,76.39,27.9a4.18,4.18,0,0,1-1.83-8.15c.89-.2,22.07-4.75,43.66,10.8a4.17,4.17,0,0,1-2.44,7.56" fill="#48443e"/><path d="M128.72,63.57a4.16,4.16,0,0,1-2.34-.73c-16.32-11.08-29.47-14.6-37.62-15.59-8.76-1.07-13.77.46-13.82.47a4.17,4.17,0,0,1-2.6-7.93c1-.32,23.89-7.52,58.73,16.15a4.18,4.18,0,0,1-2.35,7.63" fill="#48443e"/><path d="M129.57,89.87a4.13,4.13,0,0,1-2.82-1.1C111.88,75.1,99.19,69.89,91.16,67.94c-8.6-2.1-13.82-1-13.87-1a4.17,4.17,0,0,1-1.88-8.13c1-.24,25.12-5.5,57,23.82a4.17,4.17,0,0,1-2.83,7.24" fill="#48443e"/><path d="M88.9,133.25a4.17,4.17,0,0,1-1.82-7.93c20.45-9.86,25.86-27.8,25.91-28a4.17,4.17,0,0,1,8,2.28c-.25.88-6.35,21.66-30.31,33.22a4.19,4.19,0,0,1-1.81.41" fill="#48443e"/><path d="M60.35,132.49a4.17,4.17,0,0,1-1.92-7.88c33.8-17.47,37.79-37.77,37.82-38a4.18,4.18,0,1,1,8.22,1.47c-.18,1-4.78,24.58-42.21,43.91a4.09,4.09,0,0,1-1.91.47" fill="#48443e"/><path d="M36.82,120.69a4.18,4.18,0,0,1-1.35-8.13c36.83-12.6,42.71-32.81,42.77-33a4.17,4.17,0,0,1,8.05,2.19c-.27,1-7.14,24.7-48.12,38.73a4.25,4.25,0,0,1-1.35.23" fill="#48443e"/><path d="M75.14,149.86a75.26,75.26,0,0,1-50.09-19.1,4.17,4.17,0,1,1,5.57-6.22A66.72,66.72,0,0,0,129.7,113.1a4.17,4.17,0,1,1,6.83,4.79,75.1,75.1,0,0,1-61.39,32M10.83,108.92A4.17,4.17,0,0,1,7,106.51,74.27,74.27,0,0,1,0,74.86,75.08,75.08,0,0,1,51.56,3.5a4.18,4.18,0,0,1,2.62,7.93A66.79,66.79,0,0,0,8.35,74.86,66,66,0,0,0,14.6,103a4.17,4.17,0,0,1-2,5.55,4.24,4.24,0,0,1-1.76.39M144.45,93.48a4.89,4.89,0,0,1-.85-.08,4.19,4.19,0,0,1-3.25-4.94l0-.13A66.59,66.59,0,0,0,88.62,9.48a68.68,68.68,0,0,0-7.77-1.15A4.17,4.17,0,1,1,81.58,0a75.07,75.07,0,0,1,68.55,74.7A75.38,75.38,0,0,1,148.55,90l0,.11a4.17,4.17,0,0,1-4.08,3.33" fill="#48443e"/></g></g></svg>