<svg xmlns="http://www.w3.org/2000/svg" viewBox="0 0 149.79 149.79"><defs><style>.cls-1{fill:#48443e;}</style></defs><g id="Слой_2" data-name="Слой 2"><g id="Слой_1-2" data-name="Слой 1"><path class="cls-1" d="M139.79,50.1a5.19,5.19,0,0,1-3.69-1.53L101.22,13.7a5.22,5.22,0,0,1,7.38-7.38L143.48,41.2a5.22,5.22,0,0,1-3.69,8.9"/><path class="cls-1" d="M144.58,30.42a5.19,5.19,0,0,1-3.69-1.53l-20-20a5.21,5.21,0,0,1,7.38-7.37l20,20a5.22,5.22,0,0,1-3.69,8.9"/><path class="cls-1" d="M40.63,114.38A5.22,5.22,0,0,1,37,105.47l68.52-68.53a5.22,5.22,0,1,1,7.38,7.38L44.32,112.85a5.19,5.19,0,0,1-3.69,1.53"/><path class="cls-1" d="M134.07,68.86a5.16,5.16,0,0,1-3.68-1.52L82.46,19.41A5.22,5.22,0,0,1,89.84,12L137.76,60a5.21,5.21,0,0,1-3.69,8.9"/><path class="cls-1" d="M63.65,139.29A5.19,5.19,0,0,1,60,137.76L12,89.83a5.21,5.21,0,0,1,7.38-7.37l47.93,47.93a5.22,5.22,0,0,1-3.69,8.9"/><path class="cls-1" d="M44.89,145a5.19,5.19,0,0,1-3.69-1.53L6.32,108.6a5.22,5.22,0,0,1,7.38-7.38L48.57,136.1a5.22,5.22,0,0,1-3.68,8.9"/><path class="cls-1" d="M25.2,149.79a5.2,5.2,0,0,1-3.68-1.52l-20-20A5.21,5.21,0,0,1,8.9,120.9l20,20a5.21,5.21,0,0,1-3.69,8.9"/></g></g></svg>
