<svg xmlns="http://www.w3.org/2000/svg" viewBox="0 0 129.31 153.1"><g id="Слой_2" data-name="Слой 2"><g id="Слой_1-2" data-name="Слой 1"><path d="M101.84,49a4.13,4.13,0,0,1-2.56-.89,56.35,56.35,0,0,0-69.24,0,4.17,4.17,0,1,1-5.14-6.58,64.69,64.69,0,0,1,79.52,0A4.18,4.18,0,0,1,101.84,49" fill="#48443e"/><path d="M125.14,96.72H4.17A4.17,4.17,0,0,1,0,92.55a64.59,64.59,0,0,1,9.05-33,4.17,4.17,0,1,1,7.17,4.27A56.19,56.19,0,0,0,8.5,88.37H120.81a56.06,56.06,0,0,0-7.72-24.56,4.18,4.18,0,1,1,7.18-4.27,64.68,64.68,0,0,1,9,33,4.17,4.17,0,0,1-4.17,4.17" fill="#48443e"/><path d="M64.66,36.23a4.17,4.17,0,0,1-4.18-4.17V4.17a4.18,4.18,0,0,1,8.35,0V32.06a4.17,4.17,0,0,1-4.17,4.17" fill="#48443e"/><path d="M21.4,117.26a4.17,4.17,0,0,1,0-8.34h0a4.17,4.17,0,1,1,0,8.34" fill="#48443e"/><path d="M93.56,117.26h-.08a4.17,4.17,0,0,1,0-8.34h.08a4.17,4.17,0,0,1,0,8.34m-14.43,0h-.08a4.17,4.17,0,1,1,0-8.34h.08a4.17,4.17,0,0,1,0,8.34m-14.43,0h-.08a4.17,4.17,0,1,1,0-8.34h.08a4.17,4.17,0,0,1,0,8.34m-14.43,0h-.09a4.17,4.17,0,0,1,0-8.34h.09a4.17,4.17,0,0,1,0,8.34m-14.44,0h-.08a4.17,4.17,0,0,1,0-8.34h.08a4.17,4.17,0,1,1,0,8.34" fill="#48443e"/><path d="M108,117.26h0a4.17,4.17,0,0,1,0-8.34h0a4.17,4.17,0,1,1,0,8.34" fill="#48443e"/><path d="M21.4,135.18a4.17,4.17,0,0,1,0-8.34h0a4.17,4.17,0,1,1,0,8.34" fill="#48443e"/><path d="M93.56,135.18h-.08a4.17,4.17,0,1,1,0-8.34h.08a4.17,4.17,0,0,1,0,8.34m-14.43,0h-.08a4.17,4.17,0,1,1,0-8.34h.08a4.17,4.17,0,0,1,0,8.34m-14.43,0h-.08a4.17,4.17,0,1,1,0-8.34h.08a4.17,4.17,0,0,1,0,8.34m-14.43,0h-.09a4.17,4.17,0,1,1,0-8.34h.09a4.17,4.17,0,0,1,0,8.34m-14.44,0h-.08a4.17,4.17,0,1,1,0-8.34h.08a4.17,4.17,0,1,1,0,8.34" fill="#48443e"/><path d="M108,135.18h0a4.17,4.17,0,1,1,0-8.34h0a4.17,4.17,0,1,1,0,8.34" fill="#48443e"/><path d="M21.4,153.1a4.18,4.18,0,0,1,0-8.35h0a4.18,4.18,0,1,1,0,8.35" fill="#48443e"/><path d="M93.56,153.1h-.08a4.18,4.18,0,0,1,0-8.35h.08a4.18,4.18,0,0,1,0,8.35m-14.43,0h-.08a4.18,4.18,0,1,1,0-8.35h.08a4.18,4.18,0,0,1,0,8.35m-14.43,0h-.08a4.18,4.18,0,1,1,0-8.35h.08a4.18,4.18,0,0,1,0,8.35m-14.43,0h-.09a4.18,4.18,0,0,1,0-8.35h.09a4.18,4.18,0,0,1,0,8.35m-14.44,0h-.08a4.18,4.18,0,0,1,0-8.35h.08a4.18,4.18,0,1,1,0,8.35" fill="#48443e"/><path d="M108,153.1h0a4.18,4.18,0,0,1,0-8.35h0a4.18,4.18,0,1,1,0,8.35" fill="#48443e"/></g></g></svg>