<svg xmlns="http://www.w3.org/2000/svg" viewBox="0 0 127.58 124.78"><defs><style>.cls-1{fill:#48443e;}</style></defs><g id="Слой_2" data-name="Слой 2"><g id="Слой_1-2" data-name="Слой 1"><path class="cls-1" d="M4.8,124.78A4.8,4.8,0,0,1,0,120V91.44A13.84,13.84,0,0,1,13.82,77.62h21a4.23,4.23,0,0,0,4.22-4.22V52.63A13.84,13.84,0,0,1,52.91,38.81H72.42a4.23,4.23,0,0,0,4.23-4.22V13.82A13.84,13.84,0,0,1,90.47,0h32.31a4.8,4.8,0,0,1,0,9.6H90.47a4.22,4.22,0,0,0-4.22,4.22V34.59A13.84,13.84,0,0,1,72.42,48.41H52.91a4.22,4.22,0,0,0-4.22,4.22V73.4A13.84,13.84,0,0,1,34.87,87.22h-21A4.22,4.22,0,0,0,9.6,91.44V120a4.8,4.8,0,0,1-4.8,4.8"/></g></g></svg>
