<?xml version="1.0" encoding="utf-8"?>
<!-- Generator: Adobe Illustrator 24.1.2, SVG Export Plug-In . SVG Version: 6.00 Build 0)  -->
<svg version="1.1" id="Слой_1" xmlns="http://www.w3.org/2000/svg" xmlns:xlink="http://www.w3.org/1999/xlink" x="0px" y="0px"
	 viewBox="0 0 45.4 45.4" style="enable-background:new 0 0 45.4 45.4;" xml:space="preserve">
<g>
	<path d="M-207.7,21.2c0-0.5-0.1-1-0.2-1.4c-0.3-1.4-0.7-2.7-1-4.1c-0.1-0.2-0.3-0.4-0.6-0.4h-4.3c-0.1,0-0.3,0-0.4,0
		c-0.1,0-0.2,0.1-0.2,0.2v3h-1.8v-2.9c0-0.3,0-0.3-0.4-0.3h-3.2c-0.7,0-1.2-0.4-1.3-1c-0.1-0.2-0.1-0.5-0.1-0.8
		c-0.2-1.5-1.4-2.6-2.9-2.6h-4.5V9.4h4.1V7.8h-14.5v1.7h4.1V11h-0.3c-1,0-2.1,0-3.1,0c-1.2,0-2.1,0.6-2.6,1.7
		c-0.1,0.2-0.2,0.5-0.4,0.8c-0.1,0.3-0.4,0.4-0.7,0.4c-0.4,0-0.8,0-1.2,0c-1.8,0-3.1,1.3-3.1,2.9v3.6h-2.4v-6.8c0,0,0,0,0,0
		c-0.6,0.5-1.1,1-1.6,1.6c-0.2,0.2-0.3,0.5-0.3,0.7c0,1.6,0,3.2,0,4.8c0,0.3,0.1,0.6,0.3,0.8c0.3,0.2,0.3,0.5,0.3,0.8v5.2
		c0,0.2,0,0.4,0,0.6c0,0.3,0.1,0.5,0.4,0.6c0.3,0.1,0.6,0.2,1,0.3v-6.6h2.3c0,0.1,0,0.2-0.1,0.2v5.1c0,1.6,1.3,2.9,2.9,2.9h1.8
		c0.5,0,0.9,0.1,1.3,0.5c1.2,1.1,2.4,2.2,3.6,3.4c0.7,0.6,1.5,1,2.4,1h12.8c0.2,0,0.4,0.1,0.5,0.2c0.5,0.5,1.1,1,1.6,1.5
		c0.7,0.6,1.5,0.8,2.3,0.5c0.8-0.3,1.4-0.9,1.5-1.7c0.1-0.8-0.1-1.4-0.7-2c-0.1-0.1-0.1-0.2-0.1-0.2c0.2-0.5,0.2-0.9,0.2-1.3V31h1.8
		v3.2c0.1,0,0.1,0,0.1,0h4.8c0.1,0,0.2-0.1,0.3-0.1c0.1-0.1,0.2-0.3,0.2-0.4c0.2-0.6,0.3-1.3,0.5-1.9c0.4-1.4,0.7-2.9,0.7-4.3
		C-207.7,25.4-207.7,23.3-207.7,21.2z M-210,30.9c-0.1,0.4-0.2,0.8-0.3,1.1c-0.1,0.3-0.2,0.5-0.6,0.5h-1.6v-3.3h-5.4v2.9
		c-0.1-0.1-0.2-0.1-0.2-0.2c-1.2-1.1-2.3-2.1-3.5-3.2c-0.1-0.1-0.2-0.2-0.1-0.3c2.1-4.3-0.4-9.3-5.1-10.5c-4.3-1.1-8.7,1.5-9.6,5.7
		c-1,4.2,2,8.4,6.5,9.1c1.7,0.3,3.3,0,4.8-0.8c0.1,0,0.1,0,0.1-0.1c0,0,0,0,0.1,0c0.6,0.6,1.2,1.1,1.9,1.7H-234
		c-0.6,0-1-0.2-1.4-0.6c-1.2-1.1-2.4-2.3-3.6-3.4c-0.6-0.6-1.4-0.9-2.4-0.9h-1.8c-0.7,0-1.2-0.5-1.2-1.2V16.8c0-0.7,0.5-1.2,1.2-1.2
		c0.5,0,1.1,0,1.6-0.1c1-0.1,1.7-0.7,2.1-1.6c0.1-0.2,0.2-0.4,0.3-0.6c0.2-0.4,0.5-0.6,1-0.6h13.6c0.2,0,0.5,0,0.7,0.1
		c0.4,0.1,0.7,0.3,0.8,0.7c0.1,0.3,0.1,0.6,0.2,0.9c0.1,0.3,0.2,0.7,0.3,1c0.5,1.1,1.4,1.6,2.6,1.7c0.6,0,1.2,0,1.7,0h0.2v3.2h5.4
		v-3.2c0.1,0,0.1,0,0.1,0c0.5,0,1,0,1.6,0c0.4,0,0.5,0.1,0.6,0.4c0.2,0.8,0.4,1.5,0.6,2.3c0.3,1,0.3,2.1,0.3,3.2
		c0,1.2-0.1,2.5,0,3.7C-209.4,28.2-209.6,29.5-210,30.9z M-222.3,25.2c0,3.6-2.8,6.4-6.6,6.4c-3.6,0-6.5-2.8-6.5-6.3
		c0-3.4,2.9-6.3,6.5-6.3C-225.4,18.9-222.4,21.7-222.3,25.2z"/>
	<path d="M-228.7,20.9c2.2,0,4.1,1.7,4.4,3.8c0,0.1,0,0.3,0,0.4c0,0.3-0.1,0.4-0.3,0.4c-0.2,0-0.3-0.1-0.3-0.4
		c-0.1-1-0.4-1.8-1.2-2.6c-0.8-0.7-1.7-1.1-2.7-1.1c-0.1,0-0.1,0-0.2,0c-0.2,0-0.3-0.1-0.3-0.3c0-0.2,0.1-0.3,0.3-0.3
		C-228.9,20.9-228.8,20.9-228.7,20.9z"/>
</g>
<text transform="matrix(1 0 0 1 -201.1745 26.8776)" style="font-family:'MyriadPro-Regular'; font-size:12px;">АВТОМАСТЕРСКАЯ</text>
<g>
	<path d="M44.1,21.2c0-0.5-0.1-1-0.2-1.4c-0.3-1.4-0.7-2.7-1-4.1c-0.1-0.2-0.3-0.4-0.6-0.4h-4.3c-0.1,0-0.3,0-0.4,0
		c-0.1,0-0.2,0.1-0.2,0.2v3h-1.8v-2.9c0-0.3,0-0.3-0.4-0.3h-3.2c-0.7,0-1.2-0.4-1.3-1c-0.1-0.2-0.1-0.5-0.1-0.8
		c-0.2-1.5-1.4-2.6-2.9-2.6h-4.5V9.3h4.1V7.7H12.8v1.7h4.1v1.5h-0.3c-1,0-2.1,0-3.1,0c-1.2,0-2.1,0.6-2.6,1.7
		c-0.1,0.2-0.2,0.5-0.4,0.8c-0.1,0.3-0.4,0.4-0.7,0.4c-0.4,0-0.8,0-1.2,0c-1.8,0-3.1,1.3-3.1,2.9v3.6H3.2v-6.8c0,0,0,0,0,0
		c-0.6,0.5-1.1,1-1.6,1.6c-0.2,0.2-0.3,0.5-0.3,0.7c0,1.6,0,3.2,0,4.8c0,0.3,0.1,0.6,0.3,0.8c0.3,0.2,0.3,0.5,0.3,0.8v5.2
		c0,0.2,0,0.4,0,0.6c0,0.3,0.1,0.5,0.4,0.6c0.3,0.1,0.6,0.2,1,0.3v-6.6h2.3c0,0.1,0,0.2-0.1,0.2v5.1c0,1.6,1.3,2.9,2.9,2.9h1.8
		c0.5,0,0.9,0.1,1.3,0.5c1.2,1.1,2.4,2.2,3.6,3.4c0.7,0.6,1.5,1,2.4,1h12.8c0.2,0,0.4,0.1,0.5,0.2c0.5,0.5,1.1,1,1.6,1.5
		c0.7,0.6,1.5,0.8,2.3,0.5c0.8-0.3,1.4-0.9,1.5-1.7c0.1-0.8-0.1-1.4-0.7-2c-0.1-0.1-0.1-0.2-0.1-0.2c0.2-0.5,0.2-0.9,0.2-1.3v-1.2
		h1.8v3.2c0.1,0,0.1,0,0.1,0h4.8c0.1,0,0.2-0.1,0.3-0.1c0.1-0.1,0.2-0.3,0.2-0.4c0.2-0.6,0.3-1.3,0.5-1.9c0.4-1.4,0.7-2.9,0.7-4.3
		C44.2,25.3,44.2,23.2,44.1,21.2z M41.8,30.8c-0.1,0.4-0.2,0.8-0.3,1.1c-0.1,0.3-0.2,0.5-0.6,0.5h-1.6v-3.3h-5.4V32
		c-0.1-0.1-0.2-0.1-0.2-0.2c-1.2-1.1-2.3-2.1-3.5-3.2c-0.1-0.1-0.2-0.2-0.1-0.3c2.1-4.3-0.4-9.3-5.1-10.5c-4.3-1.1-8.7,1.5-9.6,5.7
		c-1,4.2,2,8.4,6.5,9.1c1.7,0.3,3.3,0,4.8-0.8c0.1,0,0.1,0,0.1-0.1c0,0,0,0,0.1,0c0.6,0.6,1.2,1.1,1.9,1.7H17.8
		c-0.6,0-1-0.2-1.4-0.6c-1.2-1.1-2.4-2.3-3.6-3.4c-0.6-0.6-1.4-0.9-2.4-0.9H8.6c-0.7,0-1.2-0.5-1.2-1.2V16.7c0-0.7,0.5-1.2,1.2-1.2
		c0.5,0,1.1,0,1.6-0.1c1-0.1,1.7-0.7,2.1-1.6c0.1-0.2,0.2-0.4,0.3-0.6c0.2-0.4,0.5-0.6,1-0.6h13.6c0.2,0,0.5,0,0.7,0.1
		c0.4,0.1,0.7,0.3,0.8,0.7c0.1,0.3,0.1,0.6,0.2,0.9c0.1,0.3,0.2,0.7,0.3,1c0.5,1.1,1.4,1.6,2.6,1.7c0.6,0,1.2,0,1.7,0h0.2v3.2h5.4
		V17c0.1,0,0.1,0,0.1,0c0.5,0,1,0,1.6,0c0.4,0,0.5,0.1,0.6,0.4c0.2,0.8,0.4,1.5,0.6,2.3c0.3,1,0.3,2.1,0.3,3.2c0,1.2-0.1,2.5,0,3.7
		C42.5,28.1,42.3,29.5,41.8,30.8z M29.5,25.1c0,3.6-2.8,6.4-6.6,6.4c-3.6,0-6.5-2.8-6.5-6.3c0-3.4,2.9-6.3,6.5-6.3
		C26.5,18.9,29.5,21.7,29.5,25.1z"/>
	<path d="M23.1,20.8c2.2,0,4.1,1.7,4.4,3.8c0,0.1,0,0.3,0,0.4c0,0.3-0.1,0.4-0.3,0.4c-0.2,0-0.3-0.1-0.3-0.4c-0.1-1-0.4-1.8-1.2-2.6
		c-0.8-0.7-1.7-1.1-2.7-1.1c-0.1,0-0.1,0-0.2,0c-0.2,0-0.3-0.1-0.3-0.3c0-0.2,0.1-0.3,0.3-0.3C22.9,20.8,23,20.8,23.1,20.8z"/>
</g>
</svg>
