
<svg xmlns="http://www.w3.org/2000/svg" viewBox="0 0 129.91 130.75"><defs><style>.cls-1{fill:#48443e;}</style></defs><g id="Слой_2" data-name="Слой 2"><g id="Слой_1-2" data-name="Слой 1"><path class="cls-1" d="M79.78,45.4a4.19,4.19,0,0,0,4.15,3.75,3.31,3.31,0,0,0,.44,0,4.16,4.16,0,0,0,3.71-4.57c0-.41-.83-10.07,7.09-16.12,10.69-8.16,9.21-24,9.14-24.69a4.17,4.17,0,0,0-8.3.83c0,.12,1,11.91-5.9,17.23-11.71,8.94-10.39,23-10.33,23.59"/><path class="cls-1" d="M38.08,49.13h0A4.17,4.17,0,0,0,42.25,45c0-.11.11-11.19,7.08-16.54,10.66-8.18,9.2-24,9.13-24.67a4.17,4.17,0,1,0-8.3.83c0,.12,1,11.92-5.92,17.22C34,29.71,33.9,44.36,33.91,45a4.16,4.16,0,0,0,4.17,4.15"/><path class="cls-1" d="M56.84,45.25A4.16,4.16,0,0,0,61,49.13h.27a4.19,4.19,0,0,0,3.9-4.43c0-.11-.56-10.91,6.94-16.16,11.14-7.81,9.35-24.16,9.27-24.86a4.17,4.17,0,0,0-8.29,1c0,.12,1.27,12.12-5.77,17.06-11.4,8-10.52,22.91-10.48,23.54"/><path class="cls-1" d="M36.06,113.38a4.11,4.11,0,0,0,1.76.39h45.8A4.15,4.15,0,0,0,86,113,53,53,0,0,0,100.31,98.1c14-1.51,22.3-8,26.63-21a23.32,23.32,0,0,0,1-4.46,11.42,11.42,0,0,0-1.73-8.32,10.1,10.1,0,0,0-7.78-4H118a4.17,4.17,0,0,0,.4,8.33h-.1a1.82,1.82,0,0,1,1.2.53c.4.59.51,2.31-.47,5.25-2.63,7.9-6.73,12.29-13.8,14.31a69.09,69.09,0,0,0,3.76-12,75.43,75.43,0,0,0,1.61-21.31,4.18,4.18,0,0,0-4.15-3.77H92.36a4.18,4.18,0,0,0,0,8.35h10c0,9-1.91,32-20.13,45.45H38.9a30.53,30.53,0,0,1-8.64-8.75C25.9,90.32,20.74,78.9,20.08,60H31a4.18,4.18,0,0,0,0-8.35H15.83a4.18,4.18,0,0,0-4.17,4.18c0,45.71,23.4,57.11,24.4,57.57"/><path class="cls-1" d="M125.74,110.54a4.17,4.17,0,0,0-4.18,4.17v5.71a2,2,0,0,1-2,2H10.33a2,2,0,0,1-2-2v-3.76a4.18,4.18,0,0,0-8.35,0v3.76a10.34,10.34,0,0,0,10.33,10.33H119.58a10.34,10.34,0,0,0,10.33-10.33v-5.71a4.17,4.17,0,0,0-4.17-4.17"/><path class="cls-1" d="M26.49,68.64a4.17,4.17,0,1,0,5.6,6.19c.06,0,6.44-5,25-2.1,7.49,1.14,16,2.08,22.69,2.49,12,.74,14.42-.25,15.91-1.33a4.17,4.17,0,0,0-4.47-7c-3,.78-17.74-.07-32.87-2.38-22.68-3.47-31,3.37-31.89,4.16"/></g></g></svg>
