<svg xmlns="http://www.w3.org/2000/svg" viewBox="0 0 185.8 157.01"><defs><style>.cls-1{fill:#48443e;}</style></defs><g id="Слой_2" data-name="Слой 2"><g id="Слой_1-2" data-name="Слой 1"><path class="cls-1" d="M4.34,157a4.17,4.17,0,0,1-4.17-4.17L0,16.17A16.15,16.15,0,0,1,16.15,0H51.39A16.18,16.18,0,0,1,67.55,16.15V152.83a4.18,4.18,0,1,1-8.35,0V16.15a7.81,7.81,0,0,0-7.81-7.8H16.15a7.8,7.8,0,0,0-7.8,7.81l.16,136.67A4.17,4.17,0,0,1,4.35,157Z"/><path class="cls-1" d="M63.71,157a4.17,4.17,0,0,1-4.17-4.17L59.37,16.17A16.15,16.15,0,0,1,75.52,0h35.24a16.18,16.18,0,0,1,16.16,16.15V152.83a4.18,4.18,0,1,1-8.35,0V16.15a7.81,7.81,0,0,0-7.81-7.8H75.52a7.82,7.82,0,0,0-7.81,7.81l.17,136.67A4.18,4.18,0,0,1,63.71,157Z"/><path class="cls-1" d="M122.6,157a4.18,4.18,0,0,1-4.18-4.17l-.16-136.67A16.15,16.15,0,0,1,134.41,0h35.24A16.17,16.17,0,0,1,185.8,16.15V152.83a4.17,4.17,0,1,1-8.34,0V16.15a7.81,7.81,0,0,0-7.81-7.8H134.41a7.82,7.82,0,0,0-7.81,7.81l.17,136.67A4.18,4.18,0,0,1,122.6,157Z"/><path class="cls-1" d="M50.26,34.17h-33a4.17,4.17,0,1,1,0-8.34h33a4.17,4.17,0,0,1,0,8.34"/><path class="cls-1" d="M50.26,45.56h-33a4.18,4.18,0,0,1,0-8.35h33a4.18,4.18,0,0,1,0,8.35"/><path class="cls-1" d="M50.26,57h-33a4.18,4.18,0,0,1,0-8.35h33a4.18,4.18,0,0,1,0,8.35"/><path class="cls-1" d="M21.51,116a4.17,4.17,0,0,1-4.17-4.17V84.23a4.17,4.17,0,1,1,8.34,0v27.55A4.17,4.17,0,0,1,21.51,116"/><path class="cls-1" d="M99,65.6a4.18,4.18,0,0,1-4.18-4.17V21.36a4.18,4.18,0,0,1,8.35,0V61.43A4.17,4.17,0,0,1,99,65.6"/><path class="cls-1" d="M99,34.17H84.8a4.17,4.17,0,0,1,0-8.34H99a4.17,4.17,0,0,1,0,8.34"/><path class="cls-1" d="M168.52,34.17h-33a4.17,4.17,0,1,1,0-8.34h33a4.17,4.17,0,0,1,0,8.34"/><path class="cls-1" d="M168.52,45.56h-33a4.18,4.18,0,0,1,0-8.35h33a4.18,4.18,0,0,1,0,8.35"/><path class="cls-1" d="M168.52,57h-33a4.18,4.18,0,0,1,0-8.35h33a4.18,4.18,0,0,1,0,8.35"/><path class="cls-1" d="M139.7,116a4.18,4.18,0,0,1-4.18-4.17V84.23a4.18,4.18,0,0,1,8.35,0v27.55A4.17,4.17,0,0,1,139.7,116"/><path class="cls-1" d="M80.81,116a4.17,4.17,0,0,1-4.17-4.17V84.23a4.18,4.18,0,0,1,8.35,0v27.55A4.18,4.18,0,0,1,80.81,116"/></g></g></svg>