<svg xmlns="http://www.w3.org/2000/svg" viewBox="0 0 119.3 142.74"><g id="Слой_2" data-name="Слой 2"><g id="Слой_1-2" data-name="Слой 1"><path d="M60.16,142.74h-.88A20.76,20.76,0,0,1,38.54,122V111.93a12.39,12.39,0,1,0-24.77,0v7a4.18,4.18,0,1,1-8.35,0v-7a20.74,20.74,0,1,1,41.47,0V122a12.41,12.41,0,0,0,12.39,12.39h.88A12.41,12.41,0,0,0,72.55,122V88.14a4.18,4.18,0,0,1,8.35,0V122a20.76,20.76,0,0,1-20.74,20.74" fill="#48443e"/><path d="M83.17,90H70.27A4.17,4.17,0,0,1,66.1,85.8V72.9a4.17,4.17,0,0,1,4.17-4.17h12.9a4.17,4.17,0,0,1,4.17,4.17V85.8A4.17,4.17,0,0,1,83.17,90m-8.72-8.34H79V77.07H74.45Z" fill="#48443e"/><path d="M76.54,83.19a41.65,41.65,0,0,1-9.31-1,26,26,0,0,1-19.4-18.62L34.55,21.75a15.66,15.66,0,0,1,15-20.39h7.11a4.17,4.17,0,1,1,0,8.34H49.5a7.37,7.37,0,0,0-7.37,7.4,7.16,7.16,0,0,0,.38,2.13L55.81,61.1l.06.19A17.66,17.66,0,0,0,69.07,74,33.93,33.93,0,0,0,84,74l1-.22A16.14,16.14,0,0,0,97.17,61.48c0-.13.06-.26.1-.38l13.31-41.87A7.5,7.5,0,0,0,111,17.1a7.37,7.37,0,0,0-7.37-7.4H96.48a4.17,4.17,0,1,1,0-8.34h7.11a15.55,15.55,0,0,1,14.94,20.39L105.28,63.44A24.51,24.51,0,0,1,86.84,81.93l-1,.22a42.33,42.33,0,0,1-9.32,1" fill="#48443e"/><path d="M9.6,131.89a9.6,9.6,0,1,1,9.59-9.6,9.61,9.61,0,0,1-9.59,9.6M9.6,121a1.25,1.25,0,1,0,1.25,1.25A1.26,1.26,0,0,0,9.6,121" fill="#48443e"/><path d="M58.07,11.06A5.53,5.53,0,0,1,58.07,0,5.46,5.46,0,0,1,62,1.62a5.53,5.53,0,0,1-3.91,9.44m0-8.35a2.82,2.82,0,1,0,2,.83,2.81,2.81,0,0,0-2-.83" fill="#48443e"/><path d="M95,11.06A5.53,5.53,0,0,1,91.1,1.62a5.53,5.53,0,0,1,7.82,0A5.53,5.53,0,0,1,95,11.06m0-8.35a2.82,2.82,0,1,0,2,.83,2.81,2.81,0,0,0-2-.83" fill="#48443e"/></g></g></svg>