<svg xmlns="http://www.w3.org/2000/svg" viewBox="0 0 144.37 97.8"><g id="Слой_2" data-name="Слой 2"><g id="Слой_1-2" data-name="Слой 1"><path d="M109.18,97.8A35.22,35.22,0,0,1,74,63.1H41.52a4.18,4.18,0,1,1,0-8.35H78.39a4.18,4.18,0,0,1,4.16,4.51c-.13,1.54-.21,2.89-.21,3.35a26.84,26.84,0,1,0,26.84-26.84,4.18,4.18,0,0,1,0-8.35,35.19,35.19,0,0,1,0,70.38" fill="#48443e"/><path d="M140.18,65.89A4.17,4.17,0,0,1,136,61.72V47.85c0-5.59,0-11,0-12.66A26.87,26.87,0,0,0,109.18,8.35H41.52a4.18,4.18,0,1,1,0-8.35H110l.43,0a35.23,35.23,0,0,1,33.94,35.17c0,1.62,0,7.07,0,12.67V61.72a4.18,4.18,0,0,1-4.18,4.17" fill="#48443e"/><path d="M109.63,35.77H41.52a4.18,4.18,0,1,1,0-8.35h68.11a4.18,4.18,0,1,1,0,8.35" fill="#48443e"/><path d="M23.37,22.27a4.16,4.16,0,0,1-2.95-1.22L10.33,11a4.17,4.17,0,0,1,5.9-5.9L26.32,15.15a4.17,4.17,0,0,1-2.95,7.12" fill="#48443e"/><path d="M20.24,36.41H4.17a4.17,4.17,0,0,1,0-8.34H20.24a4.17,4.17,0,1,1,0,8.34" fill="#48443e"/><path d="M13.28,60.64a4.17,4.17,0,0,1-2.95-7.12L20.42,43.43a4.17,4.17,0,1,1,5.9,5.9L16.23,59.42a4.12,4.12,0,0,1-3,1.22" fill="#48443e"/><path d="M98.11,23.06H89.65a4.17,4.17,0,0,1-4.17-4.17V17a4.17,4.17,0,0,1,4.17-4.17h8.46A4.17,4.17,0,0,1,102.28,17v1.9a4.17,4.17,0,0,1-4.17,4.17" fill="#48443e"/></g></g></svg>