<svg xmlns="http://www.w3.org/2000/svg" viewBox="0 0 165.64 166.54"><defs><style>.cls-1{fill:#48443e;}</style></defs><g id="Слой_2" data-name="Слой 2"><g id="Слой_1-2" data-name="Слой 1"><path class="cls-1" d="M65.37,105.76a4.17,4.17,0,0,1-4.17-4.17V61.34c0-5.52-5.45-10-12.16-10H20.51c-6.71,0-12.16,4.49-12.16,10v40.25a4.18,4.18,0,0,1-8.35,0V61.34C0,51.22,9.2,43,20.51,43H49c11.31,0,20.51,8.23,20.51,18.35v40.25a4.18,4.18,0,0,1-4.18,4.17"/><path class="cls-1" d="M46.5,166.54H23a8.45,8.45,0,0,1-8.43-8.44V93.9a4.17,4.17,0,1,1,8.34,0v64.2a.09.09,0,0,0,.09.09H46.5a.09.09,0,0,0,.1-.09V94.22a4.17,4.17,0,1,1,8.34,0V158.1a8.45,8.45,0,0,1-8.44,8.44"/><path class="cls-1" d="M34.77,166.54a4.18,4.18,0,0,1-4.17-4.18V107A4.18,4.18,0,0,1,39,107v55.35a4.18,4.18,0,0,1-4.18,4.18"/><path class="cls-1" d="M25,34.94A4.15,4.15,0,0,1,22.31,34a19.17,19.17,0,1,1,24.33,0,4.17,4.17,0,1,1-5.3-6.45,10.83,10.83,0,1,0-13.73,0A4.18,4.18,0,0,1,25,34.94"/><path class="cls-1" d="M161.47,97.42a4.19,4.19,0,0,1-3.94-2.78L144,56.48a7.75,7.75,0,0,0-7.29-5.15h-20a7.75,7.75,0,0,0-7.29,5.15L95.85,94.64A4.17,4.17,0,0,1,88,91.85l13.52-38.16A16.11,16.11,0,0,1,116.67,43h20a16.1,16.1,0,0,1,15.15,10.7L165.4,91.85a4.17,4.17,0,0,1-2.54,5.32,4,4,0,0,1-1.39.25"/><path class="cls-1" d="M138.42,166.54H115a8.45,8.45,0,0,1-8.44-8.44V123.71h-1.94A10.43,10.43,0,0,1,95.09,109l7.64-16.79a4.17,4.17,0,1,1,7.59,3.46l-7.64,16.79a2.08,2.08,0,0,0,1.9,2.94h6.12a4.17,4.17,0,0,1,4.17,4.17V158.1a.09.09,0,0,0,.09.09h23.46a.09.09,0,0,0,.09-.09V119.53a4.18,4.18,0,0,1,4.18-4.17h6.14a2.08,2.08,0,0,0,1.9-2.94l-7.67-16.84a4.18,4.18,0,0,1,7.6-3.46L158.32,109a10.43,10.43,0,0,1-9.49,14.75h-2V158.1a8.45,8.45,0,0,1-8.44,8.44"/><path class="cls-1" d="M126.69,166.54a4.18,4.18,0,0,1-4.17-4.18V120.14a4.17,4.17,0,1,1,8.34,0v42.22a4.17,4.17,0,0,1-4.17,4.18"/><path class="cls-1" d="M116.87,34.94a4.12,4.12,0,0,1-2.64-.95,19.17,19.17,0,1,1,24.32,0,4.17,4.17,0,0,1-5.3-6.45,10.83,10.83,0,1,0-13.72,0,4.18,4.18,0,0,1-2.66,7.4"/></g></g></svg>